<?xml version="1.0" encoding="utf-8"?>
<!-- Generator: Adobe Illustrator 19.0.0, SVG Export Plug-In . SVG Version: 6.00 Build 0)  -->
<svg version="1.1" id="Layer_1" xmlns="http://www.w3.org/2000/svg" xmlns:xlink="http://www.w3.org/1999/xlink" x="0px" y="0px"
	 viewBox="0 0 500 500" style="enable-background:new 0 0 500 500;" xml:space="preserve">
<style type="text/css">
	.st0{fill:#2F406A;}
	.st1{fill:#2379BD;}
	.st2{fill:#03AFEF;}
</style>
<g id="XMLID_1_">
	<polyline id="XMLID_3_" class="st0" points="362.3,183.9 362.3,315.4 250.5,381.5 249.5,382.4 249.5,431.5 250.5,432.5 
		407.9,341.6 407.9,158.4 406.4,158 362,182.8 362.3,183.9 	"/>
	<polyline id="XMLID_4_" class="st1" points="138.5,316.5 250.5,381.5 250.5,432.5 92.1,341.3 92.1,158.8 93.7,158.5 138,184.2 
		138.5,185.7 138.5,316.5 	"/>
	<polyline id="XMLID_5_" class="st2" points="138.5,185.7 92.1,158.8 250.2,67.5 407.9,158.4 362.3,183.9 250.2,120 138.5,185.7 	
		"/>
	<polyline id="XMLID_6_" class="st0" points="248.6,301.4 247.4,300.2 247.4,250.8 248.6,250.2 248.9,249 291.2,224.3 292.5,224.6 
		292.5,275.4 248.6,301.4 	"/>
	<polyline id="XMLID_7_" class="st1" points="204,277 204,224.2 205.2,224.1 248.2,249.2 248.6,250.2 248.6,301.4 204,277 	"/>
	<polyline id="XMLID_8_" class="st2" points="247.9,198.2 204,224.2 248.6,250.2 292.5,224.6 247.9,198.2 	"/>
	<polyline id="XMLID_9_" class="st0" points="194,333.6 192.7,332.4 192.7,283 194,282.4 194.3,281.2 236.6,256.5 237.9,256.8 
		237.9,307.6 194,333.6 	"/>
	<polyline id="XMLID_10_" class="st1" points="149.3,309.2 149.3,256.4 150.5,256.3 193.6,281.4 194,282.4 194,333.6 149.3,309.2 	
		"/>
	<polyline id="XMLID_11_" class="st2" points="193.2,230.4 149.3,256.4 194,282.4 237.9,256.8 193.2,230.4 	"/>
	<polyline id="XMLID_12_" class="st0" points="307.2,334.9 306,333.6 306,284.2 307.2,283.6 307.5,282.4 349.8,257.7 351.1,258 
		351.1,308.9 307.2,334.9 	"/>
	<polyline id="XMLID_13_" class="st1" points="262.5,310.5 262.5,257.6 263.8,257.6 306.8,282.6 307.2,283.6 307.2,334.9 
		262.5,310.5 	"/>
	<polyline id="XMLID_14_" class="st2" points="306.4,231.6 262.5,257.6 307.2,283.6 351.1,258 306.4,231.6 	"/>
	<polyline id="XMLID_15_" class="st0" points="252.5,367.1 251.3,365.8 251.3,316.4 252.5,315.8 252.8,314.6 295.1,289.9 
		296.4,290.2 296.4,341.1 252.5,367.1 	"/>
	<polyline id="XMLID_16_" class="st1" points="207.9,342.7 207.9,289.8 209.1,289.8 252.2,314.8 252.5,315.8 252.5,367.1 
		207.9,342.7 	"/>
	<polyline id="XMLID_17_" class="st2" points="251.8,263.8 207.9,289.8 252.5,315.8 296.4,290.2 251.8,263.8 	"/>
	<polyline id="XMLID_18_" class="st0" points="248.6,231.4 247.4,230.2 247.4,180.8 248.6,180.2 248.9,178.9 291.2,154.3 
		292.5,154.5 292.5,205.4 248.6,231.4 	"/>
	<polyline id="XMLID_19_" class="st1" points="204,207 204,154.2 205.2,154.1 248.2,179.2 248.6,180.2 248.6,231.4 204,207 	"/>
	<polyline id="XMLID_20_" class="st2" points="247.9,128.2 204,154.2 248.6,180.2 292.5,154.5 247.9,128.2 	"/>
	<polyline id="XMLID_21_" class="st0" points="194,263.6 192.7,262.4 192.7,213 194,212.4 194.3,211.1 236.6,186.5 237.9,186.7 
		237.9,237.6 194,263.6 	"/>
	<polyline id="XMLID_22_" class="st1" points="149.3,239.2 149.3,186.4 150.5,186.3 193.6,211.4 194,212.4 194,263.6 149.3,239.2 	
		"/>
	<polyline id="XMLID_23_" class="st2" points="193.2,160.4 149.3,186.4 194,212.4 237.9,186.7 193.2,160.4 	"/>
	<polyline id="XMLID_24_" class="st0" points="307.2,264.8 306,263.6 306,214.2 307.2,213.6 307.5,212.4 349.8,187.7 351.1,188 
		351.1,238.8 307.2,264.8 	"/>
	<polyline id="XMLID_25_" class="st1" points="262.5,240.4 262.5,187.6 263.8,187.5 306.8,212.6 307.2,213.6 307.2,264.8 
		262.5,240.4 	"/>
	<polyline id="XMLID_26_" class="st2" points="306.4,161.6 262.5,187.6 307.2,213.6 351.1,188 306.4,161.6 	"/>
	<polyline id="XMLID_27_" class="st0" points="252.5,297 251.3,295.8 251.3,246.4 252.5,245.8 252.8,244.6 295.1,219.9 296.4,220.2 
		296.4,271 252.5,297 	"/>
	<polyline id="XMLID_28_" class="st1" points="207.9,272.6 207.9,219.8 209.1,219.7 252.2,244.8 252.5,245.8 252.5,297 207.9,272.6 
			"/>
	<polyline id="XMLID_29_" class="st2" points="251.8,193.8 207.9,219.8 252.5,245.8 296.4,220.2 251.8,193.8 	"/>
</g>
</svg>
